<svg xmlns="http://www.w3.org/2000/svg" xmlns:xlink="http://www.w3.org/1999/xlink" width="793" zoomAndPan="magnify" viewBox="0 0 595.5 842.249979" height="1122" preserveAspectRatio="xMidYMid meet" version="1.0"><defs><clipPath id="65c295bdef"><path d="M 19 191 L 594.984375 191 L 594.984375 573.453125 L 19 573.453125 Z M 19 191 " clip-rule="nonzero"/></clipPath><clipPath id="499068fb69"><path d="M 120 189.472656 L 505 189.472656 L 505 468 L 120 468 Z M 120 189.472656 " clip-rule="nonzero"/></clipPath></defs><g clip-path="url(#65c295bdef)"><path fill="#ff0000" d="M 595.480469 485.308594 C 531.632812 489.328125 437.183594 470.863281 337.871094 431.214844 C 174.429688 365.957031 59.878906 268.128906 82.015625 212.710938 C 85.371094 204.328125 91.703125 197.40625 100.539062 191.902344 C 59.316406 194.496094 30.816406 206.4375 22.128906 228.179688 C -0.0078125 283.59375 114.542969 381.421875 277.984375 446.675781 C 305.011719 457.472656 331.671875 466.675781 357.46875 474.304688 C 343.824219 480.960938 328.546875 484.75 312.375 484.75 L 209.03125 484.75 L 209.03125 430.878906 C 175.652344 413.597656 145.703125 395.285156 120.359375 376.84375 L 120.359375 573.402344 L 312.375 573.402344 C 374.558594 573.402344 429.855469 543.632812 464.964844 497.660156 C 514.316406 501.292969 554.214844 500.691406 595.480469 485.308594 " fill-opacity="1" fill-rule="nonzero"/></g><g clip-path="url(#499068fb69)"><path fill="#5e17eb" d="M 209.03125 354.007812 L 209.03125 278.113281 L 312.375 278.113281 C 369.359375 278.113281 415.714844 324.460938 415.714844 381.433594 C 415.714844 404.171875 408.316406 425.203125 395.816406 442.292969 C 426.417969 452.679688 456.121094 460.945312 484.15625 467.054688 C 497.078125 441.253906 504.394531 412.191406 504.394531 381.433594 C 504.394531 275.578125 418.25 189.460938 312.375 189.460938 L 120.359375 189.460938 L 120.359375 281.191406 C 140.828125 304.78125 171.238281 329.777344 209.03125 354.007812 " fill-opacity="1" fill-rule="nonzero"/></g></svg>