<svg id="Layer_1" data-name="Layer 1" xmlns="http://www.w3.org/2000/svg" viewBox="0 0 122.88 122.88"><defs><style>.cls-1{fill:#1c3a4e;fill-rule:evenodd;}.cls-2{fill:#fff;}.cls-3{fill:#55e5c5;}</style></defs><title>filmora</title><path class="cls-1" d="M28.08,0H94.8a28.17,28.17,0,0,1,28.08,28.08V94.8A28.17,28.17,0,0,1,94.8,122.88H28.08A28.17,28.17,0,0,1,0,94.8V28.08A28.17,28.17,0,0,1,28.08,0Z"/><path class="cls-2" d="M46,55.24,29.32,38.55,49.94,17.91,70.55,38.54,46.92,62.21l-.11-.12A5.58,5.58,0,0,0,46,55.24Z"/><polygon class="cls-3" points="93.58 61.27 49.92 104.97 29.3 84.34 72.96 40.63 93.58 61.27 93.58 61.27"/></svg>