<?xml version="1.0" standalone="no"?><svg xmlns="http://www.w3.org/2000/svg" viewBox="0 0 1440 320"><path fill="#6c63ff" fill-opacity="1" d="M0,288L30,256C60,224,120,160,180,160C240,160,300,224,360,256C420,288,480,288,540,245.3C600,203,660,117,720,80C780,43,840,53,900,90.7C960,128,1020,192,1080,192C1140,192,1200,128,1260,112C1320,96,1380,128,1410,144L1440,160L1440,320L1410,320C1380,320,1320,320,1260,320C1200,320,1140,320,1080,320C1020,320,960,320,900,320C840,320,780,320,720,320C660,320,600,320,540,320C480,320,420,320,360,320C300,320,240,320,180,320C120,320,60,320,30,320L0,320Z"></path></svg>